# xmcd CD database file
#
# Track frame offsets:
#	150
#	14678
#	31301
#	42542
#	56382
#	73080
#	91275
#	107861
#	122214
#	139024
#	148978
#	161770
#
# Disc length: 2368 seconds
#
# Revision: 0
# Processed by: cddbd v1.5.1PL2 Copyright (c) Steve Scherf et al.
# Submitted via: CDex 1.51
#
DISCID=b4093e0c
DTITLE=Paul Bourdeau and Shane Simpson - Wild Rice
DYEAR=2003
DGENRE=Jazz
TTITLE0=Cape North
TTITLE1=Malcolm's Manifesto
TTITLE2=I Believe You Now
TTITLE3=Beiseker Road
TTITLE4=Downward Dog
TTITLE5=Where The Water Meets The Sand
TTITLE6=Wild Rice
TTITLE7=More Acoustic
TTITLE8=Arlechinno
TTITLE9=Zachary (Berceuse)
TTITLE10=River By My Side
TTITLE11=The Juniper Tree
EXTD=YEAR: 2003
EXTT0=
EXTT1=
EXTT2=
EXTT3=
EXTT4=
EXTT5=
EXTT6=
EXTT7=
EXTT8=
EXTT9=
EXTT10=
EXTT11=
PLAYORDER=
